<?xml version="1.0" standalone="no"?>
<!DOCTYPE svg PUBLIC "-//W3C//DTD SVG 20010904//EN"
 "http://www.w3.org/TR/2001/REC-SVG-20010904/DTD/svg10.dtd">
<svg version="1.0" xmlns="http://www.w3.org/2000/svg"
 width="512.000000pt" height="512.000000pt" viewBox="0 0 512.000000 512.000000"
 preserveAspectRatio="xMidYMid meet">
<metadata>
Created by potrace 1.14, written by Peter Selinger 2001-2017
</metadata>
<g transform="translate(0.000000,512.000000) scale(0.100000,-0.100000)"
fill="#000000" stroke="none">
<path d="M1848 4825 c-2 -1 -32 -5 -68 -9 -36 -3 -76 -8 -90 -10 -117 -18
-116 -17 -270 -56 -25 -7 -54 -15 -65 -20 -11 -5 -54 -21 -95 -36 -242 -88
-486 -247 -686 -450 -309 -310 -498 -696 -558 -1134 -18 -136 -14 -411 8 -545
71 -423 258 -787 556 -1085 323 -322 721 -511 1195 -566 63 -8 282 -8 370 0
l80 6 -1 -320 -2 -320 1449 0 1449 0 0 1213 c0 1162 -1 1214 -19 1253 -24 52
-75 92 -132 102 -24 4 -270 7 -546 7 l-503 -1 -1 71 c-1 94 -8 160 -34 321 -2
11 -15 65 -29 120 -168 633 -645 1144 -1264 1354 -64 21 -128 41 -142 44 -14
3 -56 12 -95 20 -64 14 -89 18 -195 32 -38 5 -308 13 -312 9z m317 -415 c469
-61 877 -328 1131 -740 34 -55 114 -214 114 -226 0 -2 -20 -4 -45 -4 l-45 0
-30 63 c-69 144 -154 263 -279 387 -170 169 -353 282 -578 359 -266 90 -586
99 -853 25 -481 -135 -849 -480 -1016 -951 -18 -51 -31 -93 -28 -93 2 0 -1
-12 -7 -26 -5 -15 -12 -42 -15 -62 -3 -19 -8 -44 -10 -56 -17 -81 -23 -269
-11 -391 25 -268 126 -525 295 -750 118 -158 360 -357 524 -430 63 -28 67 -32
68 -62 0 -18 -2 -33 -5 -33 -3 0 -47 21 -97 46 -296 145 -561 405 -707 692
-184 360 -218 812 -90 1195 158 476 538 851 1010 998 118 37 268 65 364 68 38
1 71 4 73 5 5 6 158 -3 237 -14z m-10 -123 c92 -16 119 -21 180 -37 181 -48
377 -144 520 -254 56 -43 244 -234 282 -287 44 -61 119 -188 138 -232 l15 -37
-732 0 c-462 0 -757 -4 -798 -11 -189 -30 -347 -188 -374 -374 -3 -22 -5 -379
-6 -793 l0 -752 -52 26 c-102 51 -254 150 -301 195 -8 8 -34 32 -58 55 -207
194 -349 438 -413 707 -38 161 -44 212 -41 377 5 271 72 506 209 730 163 267
439 496 730 605 80 30 199 63 256 70 25 4 61 10 80 14 32 7 319 5 365 -2z"/>
<path d="M1848 4184 c-2 -1 -32 -5 -68 -9 -265 -29 -555 -173 -763 -381 -199
-199 -338 -467 -381 -734 -13 -81 -18 -230 -8 -230 14 0 18 17 21 85 6 164 57
358 137 517 206 410 608 685 1062 724 42 4 87 7 100 8 12 1 22 6 22 11 0 8
-114 17 -122 9z"/>
</g>
</svg>
